<?xml version="1.0" standalone="no"?>
<!DOCTYPE svg PUBLIC "-//W3C//DTD SVG 20010904//EN"
 "http://www.w3.org/TR/2001/REC-SVG-20010904/DTD/svg10.dtd">
<svg version="1.0" xmlns="http://www.w3.org/2000/svg"
 width="500" height="500" viewBox="0 0 576.000000 577.000000"
 preserveAspectRatio="xMidYMid meet" fill="none">
<!-- <rect width="100" height="100" rx="20" fill="#91BE55"/> -->
<g transform="translate(0.000000,577.000000) scale(0.100000,-0.100000)"
fill="rgb(145, 190, 85)" stroke="none">
<path d="M3987 3715 c-114 -30 -120 -35 -115 -103 6 -63 4 -64 -120 -88 -120
-23 -193 -18 -333 21 -255 73 -396 82 -536 36 -159 -52 -408 -172 -629 -302
-136 -80 -169 -127 -144 -203 17 -51 43 -70 98 -69 37 1 89 20 252 96 l205 94
14 -39 c18 -55 59 -78 136 -78 109 0 196 -30 322 -112 85 -54 165 -78 267 -78
102 0 158 16 294 85 103 52 275 110 293 99 5 -3 9 -15 9 -27 0 -13 7 -33 16
-46 16 -22 22 -23 78 -17 34 3 92 14 131 23 102 26 106 37 72 189 -126 565
-120 545 -186 543 -20 0 -75 -11 -124 -24z m184 -216 c22 -96 53 -228 68 -294
16 -66 26 -123 22 -126 -9 -9 -192 -51 -198 -46 -5 5 -23 81 -93 392 -22 99
-43 188 -46 197 -4 13 5 20 38 29 85 24 153 36 161 29 5 -4 26 -86 48 -181z
m-935 35 c44 -8 124 -29 179 -46 128 -40 264 -43 394 -9 46 12 84 20 86 19 1
-2 19 -77 39 -168 20 -91 39 -172 42 -180 3 -12 -17 -21 -86 -39 -49 -13 -144
-50 -211 -83 -66 -32 -149 -66 -182 -75 -110 -28 -249 0 -345 70 -95 70 -189
103 -319 113 -86 7 -103 15 -103 50 0 97 237 117 424 35 54 -24 76 -22 76 7 0
35 -148 90 -265 99 -131 9 -138 7 -571 -193 -159 -74 -199 -85 -222 -62 -14
14 -16 53 -2 77 31 59 527 313 770 394 34 12 223 6 296 -9z"/>
<path d="M2260 2734 c-30 -8 -90 -34 -135 -58 -83 -45 -238 -103 -289 -108
-26 -3 -31 1 -36 28 -15 72 -36 77 -175 47 -113 -24 -145 -42 -145 -83 0 -10
14 -79 30 -152 49 -214 71 -309 86 -378 32 -145 40 -149 210 -107 119 29 128
37 121 105 -5 50 -4 53 21 63 49 19 173 39 242 39 45 0 101 -10 171 -30 147
-42 298 -70 383 -70 127 0 311 67 591 214 311 165 349 193 362 271 7 43 -25
98 -66 115 -39 16 -76 7 -181 -43 -47 -21 -137 -63 -201 -92 l-116 -52 -9 36
c-14 55 -55 77 -162 84 -111 8 -194 37 -286 100 -37 26 -97 56 -133 67 -78 24
-202 26 -283 4z m287 -63 c26 -10 78 -39 115 -64 90 -61 164 -87 283 -99 108
-11 125 -18 125 -52 0 -34 -38 -63 -105 -81 -77 -20 -152 -13 -265 27 -107 37
-124 39 -128 12 -2 -17 8 -26 55 -47 115 -52 251 -70 351 -46 44 10 98 33 418
180 170 79 209 90 232 67 18 -18 15 -63 -5 -86 -47 -55 -436 -261 -658 -348
-110 -42 -117 -44 -222 -44 -115 0 -221 19 -372 67 -111 35 -243 36 -375 4
-49 -12 -90 -20 -91 -19 -1 2 -18 77 -39 168 -20 91 -39 172 -41 180 -4 12 15
20 83 37 52 14 138 48 212 85 69 34 150 68 180 75 71 16 185 9 247 -16z m-797
-99 c5 -22 14 -61 20 -88 5 -27 32 -146 59 -264 27 -118 47 -218 43 -222 -4
-3 -49 -15 -100 -26 l-93 -20 -9 21 c-5 12 -28 105 -51 207 -23 102 -51 228
-64 280 -12 52 -20 98 -16 102 5 6 156 44 188 47 7 0 17 -16 23 -37z"/>
</g>
</svg>
